<?xml version="1.0" encoding="utf-8"?>
<!-- Generator: Adobe Illustrator 19.2.0, SVG Export Plug-In . SVG Version: 6.00 Build 0)  -->
<svg version="1.1" id="Ebene_1" xmlns="http://www.w3.org/2000/svg" xmlns:xlink="http://www.w3.org/1999/xlink" x="0px" y="0px"
	 viewBox="0 0 434.6 390.3" style="enable-background:new 0 0 434.6 390.3;" xml:space="preserve" preserveAspectRatio="xMinYMin none">
<style type="text/css">
	.st0{fill:none;}
	.st1{fill:#FFFFFF;}
	.st2{fill:#505158;}
	.st3{fill:#CF6F27;}
</style>
<title>BOTY_Snipes_Logo_Final_RZ_RGB</title>
<title>BOTY_Snipes_Logo_Final_RZ_RGB</title>
<path class="st0" d="M680.2,396.6l-3.6,0.4l-1.1-7.8l-0.1-1.1l-4.1-0.1c-0.4,0.6-0.9,1.2-1.4,2l0,0l0,0c-1.5,2.2-2.9,4.5-4.1,6.8
	c5.2,1,10.2,2,15,3l-0.1-0.9C680.6,398.5,680.5,397.7,680.2,396.6z"/>
<path class="st0" d="M754.7,408.4c1.2-0.1,2.3-0.2,3.5-0.3c-0.6-0.6-1.1-1.2-1.7-1.7C755.9,407.1,755.3,407.7,754.7,408.4z"/>
<g>
	<path class="st1" d="M398,270.6l6.9-6.5l17.2-16.1l-21.1,3.4l16-15.1l-23.3,3.7l-9.7,1.5c-20.5,3.3-34.5,4.4-34.6,4.4l-3.3,0.3
		l-2,2.7l-0.8,1.2l0,0.1l0,0.1c-0.1,0.1-0.7,0.9-1.5,2.1c-3.4,4.6-5.9,7.6-7.5,9.5c-3.1-1.7-8.2-5.2-15-10.9l0,0l0,0
		c-1.2-1-2.4-2-3.6-3.1l1-5.1l0.8-4.3l-3.5-2.7l-1.4-1.1c-0.2-0.2-0.7-0.6-1.4-1.1l0.5-2.4l0.8-4.3l-3.5-2.7l-1.4-1.1l0,0
		c-0.7-0.6-13-10.4-23.6-21.6l1.4-2.2l1.9-3l0.1-0.1l0.1-0.1c1.2-2.1,2.7-4,4.5-5.6c9.4,6.1,24.3,13.8,40.1,14.8l2.5,0.2l6.1,0.4
		l1.3-6l0.6-2.5c2.5-11.2,15.1-31.3,19.3-37.6l0,0l0-0.1l4.9-7.2l11.8-17.4L362,140l11.6-17.1l-20,6.5l-10,3.3c0.8-2,1.6-4,2.4-5.9
		c1-2.3,1.9-4.5,2.6-6.3c0.4-1,2.7-6.5,4.8-11.4l8-18.5l-13,6.7l7.9-18.4l-18,9.3c-0.1,0-7.7,4-10,5.1c-0.6,0.3-1.3,0.6-2,0.9
		l-1-0.4l-2.1-0.9c-3.6-1.7-17.3-15.9-25.6-24.4l-3.2-3.3l-7.6-7.9l-2.2,5.2l-0.1,0.3l-1.9,4.6l-1.7,4.2c-0.5,1.3-3.6,5.1-8,8.6
		l-2.3-4.9l-0.5,0.2c1.1-2.2,1.8-4.7,1.9-7.4c0-0.5,0-1,0-1.5v-6.4l0-5.5l4.3,0l5.7,0c5.9,0,10.6-4.8,10.7-10.6V33.3
		c0-5.9-4.8-10.6-10.6-10.7l0,0h0h-10.8c-3.1,0-5.9,1.4-7.9,3.5c-3.1-2-6.8-3.2-10.6-3.2l-0.1,0l-0.2,0h0c-5.1,0-10,2.1-13.5,5.8
		c-0.1-0.1-0.2-0.2-0.3-0.3c-3.5-3.5-8.4-5.5-13.4-5.5c-0.2,0-0.4,0-0.5,0c-5,0-9.9,2-13.4,5.6l0,0l0,0c0,0-0.1,0.1-0.1,0.1
		c-0.1-0.1-0.2-0.2-0.3-0.3c-1.7-1.7-3.8-3.1-6-4.1l-0.1,0l-0.1,0c-2.3-1-4.8-1.5-7.3-1.5h0l-0.1,0l-2.4,0l-0.2,0.2
		c-1.8,0.2-3.5,0.7-5.1,1.5l0,0l0,0c-1,0.5-2,1.1-3,1.7c-1.6-2-4.1-3.3-6.8-3.3l0,0h0H175c-2.8,0-5.3,1.4-6.9,3.4
		c-3.1-2.1-6.9-3.3-10.7-3.3h0h0l0,0l-0.1,0l-0.1,0c-5.3,0.1-10.1,2.4-13.6,5.9c-0.3-0.3-0.6-0.6-0.9-0.9c-3.6-3.3-8.2-5.1-13.1-5.1
		l-0.1,0l-0.2,0h0c-5.1,0-10.1,2.2-13.6,5.9c-6.1,6.6-7,16.3-2.7,23.8h-2.7V60v6.5c0,0.5,0,1.1,0.1,1.7v0.3l0.1,0.5
		c0.7,4.3,2.8,8.4,5.9,11.4c3.4,3.4,8.1,5.4,12.9,5.4c0.3,0,0.5,0,0.8,0c1.1,0,2.2-0.1,3.3-0.3c-2.4,2.4-5.1,4.5-8,6.2
		c-0.9,0.5-1.8,1-2.7,1.4L85.5,75.9l-13.8-6.4l3.8,14.8l1.6,6.1l0.1,0.4c5.8,23,10.3,41.8,12,50.1L62.1,139l-18.4-1.3L55.2,150
		l-6.4-0.4l12.7,13.4l1.8,1.9l-2.3,3.6l-2,3.1c-2.6,4.1-3.3,4.7-4,5.1c-1.2,0.6-2.5,1.1-3.8,1.5l-0.1,0l-0.1,0
		c-2,0.6-4.5,1.3-7.7,2.2l-1.8,0.5l-5.3,1.5L23.1,186l10.1,8.8l1.3,1.1l-6.4,1.7l10.1,8.8l4.1,3.6c1.1,1,2.1,2.1,3,3.3l0.7,3.4
		l1.9,0.7c0.2,0.4,0.3,0.7,0.5,1.1c0.8,2,1.4,4,1.9,6.1l0.8,3.8l3.6,1.4l1.5,0.6c2.2,0.9,8.5,3.8,12.3,7c-15.1-0.4-32-0.9-32.3-0.9
		L9.8,236l19.3,12.1l-14.3-0.4l22.4,14.1c4.6,2.9,11.8,7.4,12.7,8c0.7,0.4,1.4,0.9,2.1,1.4c0.8,0.5,1.6,1.1,2.5,1.7
		c1.9,1.3,3.9,2.6,5.7,3.9c2.1,1.5,4.4,3,6.6,4.4c-5.9,5.8-11.3,10.8-15.1,14.2l-9.8,8.8l12.7,3.5c0.4,0.1,0.8,0.2,1.1,0.3l-8.8,7.9
		l12.7,3.5c1.7,0.5,3.4,0.7,5.1,0.7c3.6,0,7.2-1,10.2-2.9l0.2-0.1l0.2-0.1c8.9-6.4,18.5-9.3,30.1-9.3c11.8,0,26.5,3,47.4,9.8
		c3.7,1.2,7.6,2.5,11.5,3.9c7.3,2.5,14.9,5.3,22.9,8.2c30.5,11.1,65.2,23.6,105.8,32.1l0.2,0l0.2,0c9.6,1.5,18.9,2.3,27.7,2.3
		c56.2,0,77.5-30.4,78.4-31.7l5-7.3l-8.2-3.4c0,0-0.7-0.3-1.9-0.8c0.1-0.1,0.1-0.2,0.1-0.2l5-7.3l-8.2-3.4
		c-0.1-0.1-10.3-4.3-19.4-8.2c8.4-11.3,20.8-25.3,23.7-28.4C396.9,271.9,397.7,271,398,270.6z"/>
	<g>
		<path class="st2" d="M328.6,115.2c0.1-0.5,0.3-3.1,0.3-3.1l-2.2-0.9c-4.3-1.9-13.3-11-27.8-26l-3.2-3.3l-1.7,4.2
			c-1.5,3.7-8.4,11.1-16,15.6l-1.5,0.9c-1.9-3.9-3.1-6.5-3.1-6.5l-2.6,0.9c-0.6,0.2-14.9,5.3-20.2,2.7l-4.2-1.6l-0.1,4.6
			c0.4,3.7-3.3,12.2-5.3,16.4c-9.4-4-18.5-8.7-27.1-14.1l-1.7-1l-1.6,1.1c-9.7,6.4-23.6,8.5-23.7,8.5l-7,1l5.6,4.3
			c5.1,4,9.9,8.3,14.4,12.9c-3-1-6.4-2-9.3-2.9l-3.5-1L180,115l-2,0.2c-0.3,0-20.2,2.1-27.8-12.6l-1.9-3.8l-2.9,3.2
			c-2.9,3.1-6.3,5.7-10,7.9c-2.9,1.5-5.8,2.9-8.8,4.2l0.1-2.3L88.9,94.2l1.6,6.1c0.1,0.4,13.1,51.8,13.1,56.3v2.6l2.6,0.4
			c2.6,0.4,8.2,1.7,12.8,2.4c-0.2,1.9-0.6,4.4-1,6.6l-10.2-7.9L68,158l5.3,5.6c0.1,0.1,17.7,18.8,24.6,31.1l1.5,2.6l2.6-1.5
			c2.4-1.4,4.8-2.6,7.3-3.7c3.9-1.7,8.1-2.9,12.3-3.7c1.6,2.3,3.7,5.3,4.3,6.5c-3.5-0.6-7-0.7-10.5-0.5c-4.8,0.4-10.9,1.9-14,6.2
			c-9.6-2.1-18.5-6.9-25.5-13.9l-2.6-2.6l-2,3.1c-2.9,4.6-4.3,6.2-6.6,7.5c-1.7,0.9-3.4,1.6-5.3,2.1c-2.5,0.8-5.6,1.6-9.7,2.8
			l-5.4,1.5l4.2,3.7c3.4,3.1,6.2,6.9,8,11.1c1,2.4,1.7,4.9,2.3,7.4l1.5,0.6c0,0,9.3,3.7,14.8,8.7l5,4.5v-6.7c0-3.2,0-5.5-0.1-7.5
			c6.8,10.4,11.7,22,14.5,34.1c-12.6-0.1-52.1-1.3-52.1-1.3s11.5,7.2,12.9,8.1c1.3,0.9,2.8,1.9,4.6,3.1l0,0c1.8,1.2,3.8,2.6,5.9,4.1
			c8.3,5.9,19.2,11.6,23.2,18.2l0.1,0.3l-2.6,0.5l-2.3,2.3c-1.2,1.2-9.4,9.6-21.2,20.2c3.3,0.9,6.7,0.4,9.6-1.4
			c21.9-15.7,46.7-12.6,84-0.5c3.8,1.2,7.7,2.5,11.6,3.9l0,0c35.1,12.1,77,29.4,127.9,40c73.3,11.5,99-26.4,99-26.4
			s-20.6-8.5-29.6-12.8l0,0c-11.1-5.2-21-10.1-21-10.1l-1.3,0.7c-7.6,3.6-15.5,6.7-23.5,9.2l0,0c-5.1,1.5-10,2.5-13.7,2.1h-0.3h-0.3
			c-8.9,1.2-22.1,0.1-38-2.4c-16.3-2.5-35.3-6.3-55.4-10.3c-15.9-3.2-32.3-6.5-48.2-9.2c4.4-1.7,9-3,13.7-3.8c8-1.4,17.7-1.7,26.1,2
			l2.9,1.3l1.1-3c2-5.1,4.5-10,7.6-14.5c1.5-2.3,2.9-4,3.7-5l13.8,0.3c1.5,3.3,4.7,11,5.4,15.8l0.4,2.9l2.9-0.4
			c19.1-2.4,29.8,3.3,42.2,10.7l2.8,1.7l1.4-2.9c1.6-3.5,3.9-6.8,6.6-9.5c1.7-1.7,3.5-3.2,5.3-4.9c3.9,4.3,11.2,11.7,13.9,14.3
			l1.4,1.4l1.8-0.8c7.9-3.4,15.4-3,22.3-1.2c3.4,0.9,6.7,2.1,9.9,3.5c3.2,1.4,6.1,2.8,8.7,4l2.4,1.1l1.4-2.3
			c6.6-11,23.6-30.5,30.1-37.8l0,0c1.6-1.8,2.6-2.9,2.6-2.9l7.1-6.7l-9.7,1.5c-21.1,3.3-35.2,4.5-35.2,4.5l-0.8,1.2
			c-0.1,0.1-0.7,1-1.6,2.2l0,0c-2.8,3.8-8.6,11.5-11.7,13.6c-4.4-0.7-13.5-7.2-21.3-13.7l0,0c-4.1-3.4-8.1-7.1-11.7-11l-0.1-0.1
			l-0.6-0.7l-0.3-0.4l-0.2-0.1l2.8-14.5l-1.4-1.1c-0.1-0.1-26.1-20.6-36.7-37.9l-1.1-1.7l-2,0.4c-3.9,0.7-10.3-0.3-16.6-1.9
			c-3.4-0.8-6.6-1.8-9-2.6l2.8-3.3l0.9-0.5c0.6-0.3,2-1.2,4.1-2.3c2.3-1.1,4.7-2,7.1-2.6c5.4-1.2,12.2-0.8,18.9,5l2.7,2.3l1.9-3
			c2.6-4.5,6.2-8.2,10.6-10.9c6.9,4.9,23.3,15.3,40.7,16.4l2.5,0.2l0.6-2.5c3.3-14.8,20.3-40,20.5-40.1l4.9-7.2l-35.7,11.6
			c0,0-1.9,2.6-3.6,4.8l-0.6-4.5c0,0-1-0.4-2.1-0.7c-1.2,0.4-2.4,0.9-3.5,1.6c1.1-0.6,2.3-1.2,3.5-1.6l0.1-0.1
			c2.1-0.8,4.6-1.6,7.5-2.8l1.5-0.6l0.3-1.6c0.8-4.1,4.6-14.1,8.3-23.4c1.8-4.6,4-9.5,5.2-12.7c0.6-1.7,5-11.7,5-11.7
			s-7.9,4.1-10.2,5.2C334.4,113.1,328.6,115.2,328.6,115.2z M125.8,124.7c0.1-2.8,0.4-7.1,0.6-10l2.6,2.7c4.4,4.6,8.2,9.8,11.4,15.3
			c-0.6-0.7-1.1-1.3-1.6-2c-2.4-3.1-5-7.1-5-7.1l-2.1,0.5C129.7,124.7,127.7,124.8,125.8,124.7L125.8,124.7L125.8,124.7z M116,216.9
			c4.4,0,9.9-0.6,14.6-2.9c-0.1,1.1-0.3,2.2-0.5,3.3l-0.6,2.1l-0.3,0.1l-0.6,0.8c-2.2,3.2-5.1,9.2-7.7,14.6c-0.7,1.5-1.4,3-2,4.4
			c-1.3-4-3-8.5-4.6-12.6c-1.6-4.1-3.1-7.5-4.4-10.4C112,216.7,114,216.8,116,216.9L116,216.9L116,216.9z M155.8,294.1
			c-20.5-3.3-40-6.5-56-6.3h-0.3l-2.4,0.5c1-0.6,2.2-1.3,3.6-1.9c5.7-2.7,13.8-4.4,23.6-3.1l2.8,0.4l0.5-2.8c0.4-2,0.9-4.1,1.7-6
			l0.4-1.1c2.9-0.7,7.3-1.4,10.4-1.8l-1.4,5.2c8,4.1,16.5,12.7,16.8,13.8c0.3,0.8,0.4,1.6,0.4,2.4
			C156,293.3,155.9,293.6,155.8,294.1L155.8,294.1L155.8,294.1z"/>
		<path class="st3" d="M323.5,103.5c0.1-0.5,0.3-3.1,0.3-3.1l-2.2-0.9c-4.3-1.9-13.3-11-27.8-26l-3.2-3.3l-1.7,4.2
			c-1.5,3.7-8.4,11.1-16,15.6l-1.5,0.9c-1.9-3.9-3.1-6.5-3.1-6.5l-2.6,0.9c-0.6,0.2-14.9,5.3-20.2,2.7l-4.2-1.6l-0.1,4.6
			c0.4,3.7-3.3,12.2-5.3,16.4c-9.4-4-18.5-8.7-27.1-14.1l-1.7-1l-1.6,1.1c-9.7,6.4-23.6,8.5-23.7,8.5l-7,1l5.6,4.3
			c5.1,4,9.9,8.3,14.4,12.9c-3-1-6.4-2-9.3-2.9l-3.5-1l-7.2-12.9l-2,0.2c-0.3,0-20.2,2.1-27.8-12.6l-1.9-3.8l-2.9,3.2
			c-2.9,3.1-6.3,5.7-10,7.9c-2.9,1.5-5.8,2.9-8.8,4.2l0.1-2.3L83.8,82.5l1.6,6.1c0.1,0.4,13.1,51.8,13.1,56.3v2.6l2.6,0.4
			c2.6,0.4,8.2,1.7,12.8,2.4c-0.2,1.9-0.6,4.4-1,6.6l-10.2-7.9L63,146.3l5.3,5.6c0.1,0.1,17.7,18.8,24.6,31.1l1.5,2.6l2.6-1.5
			c2.4-1.4,4.8-2.6,7.3-3.7c3.9-1.7,8.1-2.9,12.3-3.7c1.6,2.3,3.7,5.3,4.3,6.5c-3.5-0.6-7-0.7-10.5-0.5c-4.8,0.4-10.9,1.9-14,6.2
			c-9.6-2.1-18.5-6.9-25.5-13.9l-2.6-2.6l-2,3.1c-2.9,4.6-4.3,6.2-6.6,7.5c-1.7,0.9-3.4,1.6-5.3,2.1c-2.5,0.8-5.6,1.6-9.7,2.8
			l-5.4,1.5l4.2,3.7c3.4,3.1,6.2,6.9,8,11.1c1,2.4,1.7,4.9,2.3,7.4l1.5,0.6c0,0,9.3,3.7,14.8,8.7l5,4.5v-6.7c0-3.2,0-5.5-0.1-7.5
			c6.8,10.4,11.7,22,14.5,34.1c-12.6-0.1-52.1-1.3-52.1-1.3s11.5,7.2,12.9,8.1c1.3,0.9,2.8,1.9,4.6,3.1l0,0c1.8,1.2,3.8,2.6,5.9,4.1
			c8.3,5.9,17.5,13.3,21.6,19.9l0.1,0.3l-2.6,0.5l-0.6,0.6c-1.2,1.2-9.4,9.6-21.2,20.2c3.3,0.9,6.7,0.4,9.6-1.4
			c21.9-15.7,46.7-12.6,84-0.5c3.8,1.2,7.7,2.5,11.6,3.9l0,0c35.1,12.1,77,29.4,127.9,40c73.3,11.5,99-26.4,99-26.4
			s-20.6-8.5-29.6-12.8l0,0c-11.1-5.2-21-10.1-21-10.1s-25,18.3-77.2,9.7c-16.3-2.5-35.3-6.3-55.4-10.3c-15.9-3.2-32.3-6.5-48.2-9.2
			c4.4-1.7,9-3,13.7-3.8c8-1.4,17.7-1.7,26.1,2l2.9,1.3l1.1-3c2-5.1,4.5-10,7.6-14.5c1.5-2.3,2.9-4,3.7-5l13.8,0.3
			c1.5,3.3,4.7,11,5.4,15.8l0.4,2.9l2.9-0.4c19.1-2.4,29.8,3.3,42.2,10.7l2.8,1.7l1.4-2.9c1.6-3.5,3.9-6.8,6.6-9.5
			c1.7-1.7,3.5-3.2,5.3-4.9c3.9,4.3,11.2,11.7,13.9,14.3l1.4,1.4l1.8-0.8c7.9-3.4,15.4-3,22.3-1.2c3.4,0.9,6.7,2.1,9.9,3.5
			c3.2,1.4,6.1,2.8,8.7,4l2.4,1.1l1.4-2.3c6.6-11,23.6-30.5,30.1-37.8l0,0c1.6-1.8,2.6-2.9,2.6-2.9l7.1-6.7l-9.7,1.5
			c-21.1,3.3-35.2,4.5-35.2,4.5l-0.8,1.2c-0.1,0.1-0.7,1-1.6,2.2l0,0c-2.8,3.8-8.6,11.5-11.7,13.6c-4.4-0.7-13.5-7.2-21.3-13.7l0,0
			c-4.1-3.4-8.1-7.1-11.7-11l-0.1-0.1l-0.6-0.7l-0.3-0.4l-0.2-0.1l2.8-14.5l-1.4-1.1c-0.1-0.1-26.1-20.6-36.7-37.9l-1.1-1.7l-2,0.4
			c-3.9,0.7-10.3-0.3-16.6-1.9c-3.4-0.8-6.6-1.8-9-2.6l2.8-3.3l0.9-0.5c0.6-0.3,2-1.2,4.1-2.3c2.3-1.1,4.7-2,7.1-2.6
			c5.4-1.2,12.2-0.8,18.9,5l2.7,2.3l1.9-3c2.6-4.5,6.2-8.2,10.6-10.9c6.9,4.9,23.3,15.3,40.7,16.4l2.5,0.2l0.6-2.5
			c3.3-14.8,20.3-40,20.5-40.1l4.9-7.2l-35.7,11.6c0,0-1.9,2.6-3.6,4.8l-0.6-4.5c0,0-1-0.4-2.1-0.7c-1.2,0.4-2.4,0.9-3.5,1.6
			c1.1-0.6,2.3-1.2,3.5-1.6l0.1-0.1c2.1-0.8,4.6-1.6,7.5-2.8l1.5-0.6l0.3-1.6c0.8-4.1,4.6-14.1,8.3-23.4c1.8-4.6,4-9.5,5.2-12.7
			c0.6-1.7,5-11.7,5-11.7s-7.9,4.1-10.2,5.2C329.3,101.4,323.5,103.5,323.5,103.5z M277.2,259.2l0.3-3l0,0l0,0l6.5,7.1l-14.6-0.8
			l-0.9,1.5c-0.7,1.1-1.5,2.2-2.4,3.2c-1.1-1.2-2.3-2.6-3.6-4.2L277.2,259.2L277.2,259.2L277.2,259.2z M294.3,115.4
			c-1.5,3.5-3.2,7-5.1,10.3l-0.9-1.7l-0.4-0.8C289.4,121.4,291.9,118.4,294.3,115.4L294.3,115.4L294.3,115.4z M282.4,139.1l1.7,0.9
			c2.9,1.9,5.5,4.1,7.7,6.6l-1.8,0.5c-2.4,0.6-5.1,1.4-7.7,2.4c-1.5-2.5-3.1-4.7-3.1-4.7h-2.7l2.1-1.9
			C279.8,141.6,281.1,140.4,282.4,139.1L282.4,139.1L282.4,139.1z M262.6,161.5c0.4-0.9,0.8-1.8,1.4-2.7c0.5,0.7,1,1.4,1.4,2.2
			l-2,1.2l-1-0.1L262.6,161.5L262.6,161.5L262.6,161.5z M247.5,129.9c3-0.1,5-0.2,6.7-0.3c-2.4,4.5-5.1,8.9-7.9,13.2l-1.7,2.5
			C245.7,139.8,246.7,134.2,247.5,129.9L247.5,129.9L247.5,129.9z M234.5,227.3c-3.3-4.3-6.3-8.2-8.9-11.5c-1.8-2.3-3.3-4.2-4.6-5.7
			l12.8,2.6L234.5,227.3L234.5,227.3z M222.7,142l0.9-0.1l0.3,12.5l-2.5,0.3L222.7,142L222.7,142L222.7,142z M225.8,169.9
			c2.2-2.6,4.5-4.9,6.2-6.7l0.2,0.2l0.9,1c-0.6,1.2-1.3,2.6-1.9,3.9c-0.9,2-2.5,6-2.5,6s1.9,1.2,4.3,2.7c-4.1,0.3-9.3,0.8-12.7,1
			C221.9,175.1,223.7,172.4,225.8,169.9L225.8,169.9L225.8,169.9z M197,139.7l0.8,3.9l-2.3-3.6C196,139.9,196.5,139.8,197,139.7
			L197,139.7L197,139.7z M178.5,237l0.6-1.2c0.9-1.9,1.6-3.8,2.2-5.8c0.8-2.3,1.6-5,2.4-7.6l1-3.1c0.7,3.9,1,7.2,1,7.3l0.1,1.5
			c1.3,0.8,2.6,1.8,3.8,2.8c1.1,1,2.2,2.1,3.2,3.2c-4.4,1.9-8.9,3.6-13.5,4.9l-0.8,0.2l-4.3,4.7l-0.1-1.4c0,0-1.4-1.2-4-2.8
			c3.3-1.1,6.4-2,7.2-2.2L178.5,237L178.5,237L178.5,237z M176.4,179.4c-1.1,0.1-2.2,0.1-3.3,0.1l2.9-3.3
			C176.1,177.1,176.2,178.3,176.4,179.4L176.4,179.4L176.4,179.4z M175.7,158.5l0.1,0.4l-2.4-0.8l-1.5-0.5L175.7,158.5L175.7,158.5
			L175.7,158.5z M170.5,205.7l-5.8,2.6v2.8l-5.7,0.3c0.5-0.4,1-0.7,1.5-1.1l7-5C168.3,205.6,169.4,205.7,170.5,205.7L170.5,205.7
			L170.5,205.7z M154.1,137.9v0.1l-0.3-0.2L154.1,137.9L154.1,137.9L154.1,137.9z M143.7,200.9l4.4,0.3l1.2-9.4l1.2-0.1l2.9-3.2
			l3.4,6.9l4.7-0.4c0.7,2.5,1.6,6.1,1.6,6.4c-0.2,1.3,0.4,2.6,1.6,3.3l-6.1,0.4c-5.8,0.4-10.7,0.6-15,0.8L143.7,200.9L143.7,200.9
			L143.7,200.9z M157.3,212.8c-0.3,0.8-0.7,1.8-1,2.5c-0.8,1.6-1.7,3.2-2.7,4.7c-2.5,3.7-6.3,7.8-11.6,10.2l-1.5,0.7l-0.2,1.7
			c-0.3,2.5-0.8,6.1-1.3,9.1c-1.8-0.6-3.7-1-5.6-1.3C139.5,229.7,147.6,220.4,157.3,212.8L157.3,212.8L157.3,212.8z M140.8,177.2
			c-2.7-0.1-5.3-0.2-7.6-0.4s-5.1-0.6-7.9-1.1C130.5,175.6,135.7,176.1,140.8,177.2L140.8,177.2L140.8,177.2z M120.7,113
			c0.1-2.8,0.4-7.1,0.6-10l2.6,2.7c4.4,4.6,8.2,9.8,11.4,15.3c-0.6-0.7-1.1-1.3-1.6-2c-2.4-3.1-5-7.1-5-7.1l-2.1,0.5
			C124.7,112.9,122.7,113.1,120.7,113L120.7,113L120.7,113z M111,205.1c4.4,0,9.9-0.6,14.6-2.9c-0.1,1.1-0.3,2.2-0.5,3.3l-0.6,2.1
			l-0.3,0.1l-0.6,0.8c-2.2,3.2-5.1,9.2-7.7,14.6c-0.7,1.5-1.4,3-2,4.4c-1.3-4-3-8.5-4.6-12.6s-3.1-7.5-4.4-10.4
			C106.9,205,108.9,205.1,111,205.1L111,205.1L111,205.1z M103.6,250.1c-0.2,0.5-0.5,1-0.8,1.4c-0.4-0.7-0.8-1.5-1.2-2.2
			C102.4,249.6,103,249.8,103.6,250.1L103.6,250.1L103.6,250.1z M239.5,233.9l-0.8-1l12.6-7.4l5.5,30.5v0.1l-0.1-0.1l0,0
			C251.3,249.3,245.2,241.5,239.5,233.9L239.5,233.9L239.5,233.9z M144.4,256.9c1.7,0.9,3.4,2,5,3.2l0.8,0.6h-0.5
			c-3.6-0.3-7.5-0.6-11.8-0.9l0.8-0.1l1.3-0.1c0,0,1.1-1.4,2.2-2.7L144.4,256.9L144.4,256.9L144.4,256.9z M150.8,282.4
			c-20.5-3.3-40-5.7-56-5.5h-0.3l-2.4,0.5c1-0.6,2.2-1.3,3.6-1.9c7.3-3.6,15.5-5,23.6-4l2.8,0.4l0.5-2.8c0.4-2,0.9-4.1,1.7-6
			l0.4-1.1c2.9-0.7,7.3-1.4,10.4-1.8l-1.4,5.2c8,4.1,16.5,12.7,16.8,13.8c0.3,0.8,0.4,1.6,0.4,2.4
			C151,281.6,150.9,281.9,150.8,282.4L150.8,282.4L150.8,282.4z"/>
		<path class="st2" d="M339.4,297l44.7,20.6c-3.6,6.8-41.1,30.3-92.5,22.3C181.9,317,114.1,263.2,66.3,296.6c-1.5,1-1.4,0.8-0.1-0.3
			c9.6-8.2,14-12.6,15.1-13.6l13.6-2.8c40.9-4.6,161.9,33.4,205.7,28.7C326.3,305.9,339.4,297,339.4,297z M48.9,247.3
			c5.5,0.4,44.1,1.2,48.8,0.9c0.7,1.7,4.2,8.3,5.6,9c0.9-1.8,3.7-6.6,4.2-8.6c-3.1-1.4-7.6-4-14.9-2.8c-0.9-4.2-2-8.3-3.4-12.3
			c-5.2-14.9-13.6-28.3-18.5-31.9c1.3,7.2,1.4,9,1.4,17c-6-5.4-15.8-9.2-15.8-9.2c-1.2-5-3.4-9.7-6.4-13.8l0,0
			c-1.3-1.7-2.8-3.4-4.5-4.8c16.6-4.6,17.4-4.6,23.3-13.6c7.4,7.4,16.7,12.5,26.9,14.7c0.8,1.1,1.4,2.4,1.9,3.7
			c-0.4-13.4,25.3-10.3,29.2-7.4c-1.6-3.4-3.4-6.7-5.5-9.8c0,0,19.3,3.9,35.8,1c-34-14.1-55.2-1.5-61.7,2.2
			c-7.1-12.6-25.1-31.7-25.1-31.7l31.2,2.2l13.4,10.5c0,0,2.1-11.7,2.1-14.6c-4.8-0.5-12.4-2.4-15.6-2.8c0-5-13.2-57-13.2-57
			l30.1,14.1c0,0-0.7,11.7-0.7,13.6c4.2,1.2,9.7-0.1,9.7-0.1c4.1,6.1,8.9,11.8,14.4,16.7c0.2-12.2-15.7-28.5-15.7-28.5
			s9.6-4,16.4-11.3c8.7,16.8,30.8,14.2,30.8,14.2l15,27c0,0-0.8-9.2-3.5-13.3c6.4,1.9,14.6,4.4,17.8,5.9
			c-2.4-7.3-20.3-21.1-20.3-21.1s14.6-2.1,24.9-9c9.5,6.1,19.6,11.2,30.1,15.4c0,0,7.5-14.6,6.8-20.6c6.8,3.2,22.5-2.6,22.5-2.6
			s11.9,24.7,16.3,32c0.9-14-5.7-26-8.6-27.6c7.9-4.7,15.3-12.5,17.2-17.1c14.2,14.7,23.8,24.4,28.8,26.7l-0.2,4.6
			c9.5-2.1,13.2-4.2,15.8-5.2c1.1-0.4-12.7,31.3-14.5,40.2c-5.8,2.4-10.2,3.5-12.1,5c-0.4,1.5,5,3.5,5,3.5s1,8,1.3,9.4
			c3.3-3.7,7.5-9.4,7.5-9.4l26.4-8.6c0,0-17.4,25.7-20.9,41.2c-18-1.1-35.2-12.9-40.8-17c-5.5,3-10.1,7.5-13.3,12.9
			c-15.1-13.2-31-1.8-33.4-0.6c-3.9-1.9-8.9-5.1-8.9-5.1s2.7-6.5,4.3-9c-1.3-1.9-3.3-3.5-4.5-5.2c-3.2,3.1-14.7,13.9-16.1,22.2
			c1.3,0.3,23.4-1.7,23.4-1.7s-5.7,6.8-5.6,6.8c3.3,1.2,22,7.5,31.2,5.9c0.9,1.4,1.9,2.9,3,4.4c12.1,16.7,34.5,34.3,34.5,34.3
			l-0.7,3.7l-1.7,8.9c-0.7,0.7-1.6,1.3-2.5,1.7c0.2,0.3,2.8,1,3.7,1.5c4.5,5.5,23.3,22.1,33.4,25.8c1.1,0.4,2.2,0.7,3.3,0.7
			c0.4-0.2,0.8-0.5,1.1-0.8l0,0c5-3.7,13.9-16.4,13.9-16.4s12.8-1,34-4.4c-0.2,0.1-9.1,10-18.1,20.9c-5.9,7.2-11.8,14.8-15.2,20.4
			c-10.5-4.6-26-13.7-43.4-6.3c-2.9-2.8-10.4-10.4-14-14.4c-0.6-0.7-1.2-1.4-1.8-2.1c-0.7,0.8-1.5,1.4-2.2,2.1
			c-4.6,4.2-8.4,6.7-12.7,15.4c-12.5-7.5-24-13.6-44.1-11.1c-0.2-1.5-0.6-3-1-4.5c-1.5-4.7-3.3-9.4-5.3-13.8l-17.2-0.4
			c-3.6,4.4-6.7,9.1-9.4,14.1c-1.3,2.4-2.4,4.9-3.3,7.4c-18.4-8.1-41.6,1.5-43.1,2.2c-1,0.4-1.9,1-2.7,1.6c0.3-1.6,0.2-3.2-0.4-4.7
			c-0.3-1.1-2.7-3.8-5.9-6.7c-3.7-3.4-7.9-6.4-12.4-8.8c10.7,0.5,18.8,1.9,26.5,1.1c-9.1-3.3-12.4-9.3-20-10.9
			c-1.8,2-3.3,3.9-3.3,3.9s-11.3,1.3-16,2.8c0.2,0.2-1.6,3.3-2.6,8.9c-7.4-1-14.9,0-21.8,2.7c-8.2,3.2-12.9,7.6-12.7,6.9
			c-1.5-2.5-3.3-4.8-5.4-6.9C67.7,258.5,45.8,246.4,48.9,247.3L48.9,247.3L48.9,247.3z M301.7,162.4l0.2,1.7c0,0,5.1,4.8,11.6-1.7
			l-6.6-1.2l-0.7-2.2L301.7,162.4L301.7,162.4L301.7,162.4z M268.8,147.7h8.8c0,0,1.7,2.4,3.3,5.5c6.1-2.7,14.3-4.2,16.3-4.9
			c-3.9-4.4-8.2-8.8-11.9-10.9c11-17,17.3-29.5,12.8-41.2c-1.2,1.7-0.2,10-0.2,10s-12.1,14.5-13.6,16.6c0,0.3,2.4,4.4,3.2,6.3
			C283,135,268.8,147.7,268.8,147.7L268.8,147.7z M263.5,154.3c-2.2,2.6-3.8,5.7-4.6,9l1,1.5l4.1,0.5l5.3-3
			C269.3,162.3,267.3,156.8,263.5,154.3L263.5,154.3L263.5,154.3z M243.3,114.3c6.4,2.4,8.9,4.8,18.8,2.8c1.2-9-2.2-11.2-2.2-11.2
			l-2.2,7.1C257.8,113,244.9,113.1,243.3,114.3L243.3,114.3L243.3,114.3z M238.4,161c3.8-7.5,17.3-24.9,20.7-34.9
			c-3.9,0.7-5.9,0.7-14.1,1C243.6,135.4,240.6,151.3,238.4,161L238.4,161z M167.2,254.7c0.8-0.2,0.9-3.1,0.9-3.1l-2.6-1.9
			c0,0-4.3,2.4-4.7,3.3C160.5,254,166.7,254.9,167.2,254.7L167.2,254.7L167.2,254.7z M182.2,264.4c0,0-12.7-1.2-15,0.2
			c3.3,1.6,6.6,3.4,9.7,5.4L182.2,264.4L182.2,264.4L182.2,264.4z M197.3,235c-0.2-0.4-0.5-0.7-0.7-1l0,0c-2.2-3-4.9-5.6-7.9-7.7
			c0,0-1-11.1-3.5-17c-2.1,3.7-6.1,19.3-8.5,24.6c-0.1,0.2-0.2,0.4-0.3,0.6c-1.9,0.5-12.8,4-12.8,4l0.7-4.7l0.1-0.9
			c0,0-0.3,0.3-0.8,0.9l0,0c-1,1.2-2,2.5-2.9,3.9c7.5,3.9,10.4,6.2,10.4,6.2l0.6,6.9l8.4-9.1C180,241.8,191.2,238.7,197.3,235
			L197.3,235L197.3,235z M208.3,206.5c0,0,0.5-5.4,0.7-10.3c0.2-2.3,0.2-4.6,0-6.9c-0.3-1.7-1.4,2.6-2.4,6.9c-0.8,3.5-1.4,7-1.4,7
			l-10.5,0.7L208.3,206.5L208.3,206.5L208.3,206.5z M202.8,236.8c-1,0.5-2.3,0.6-3.5,1.5c-5.1,7.5-9,12.4-14.2,23.5
			c4.8-6.4,13-14.4,13-14.4l3.8,1.2C201.8,248.6,202.6,240.7,202.8,236.8L202.8,236.8L202.8,236.8z M210.6,226.1
			c-0.4-1.9-9.7-13-9.7-13l1.7,15.1C202.7,228.2,207.8,227.4,210.6,226.1L210.6,226.1L210.6,226.1z M223,246.8l-5.5-11.4l-0.1,11.1
			L223,246.8L223,246.8z M226.4,197.7h4.4l5.6,7.3l-0.9-8.6l-0.4-3.9l-4.3-1.7l-3.6,5.6L226.4,197.7L226.4,197.7L226.4,197.7z
			 M210.7,207.3c0,0,2.6,1,5.4,2.2c1.3,0.6,9.9,11.7,19.8,24.7l0,0c10.8,14,23.1,30.1,29.7,37c2.4-0.6,5.4-5.6,5.4-5.6l20.1,1.1
			l-16-17.5l-0.7,7.7l-13.8,3.6l-4.7-26.2l-1.9-10.4l4.4-6.4l6,1.7l-9.4-10.4l0.6,10.8l-18.2,10.7l-0.9-19.8l-18.7-3.7L210.7,207.3
			L210.7,207.3L210.7,207.3z M226.4,133.9l-2.4,4.9l-4.1,0.5l-1.9,18.8l11.2-1.5l-2.4-1.9L226.4,133.9L226.4,133.9L226.4,133.9z
			 M220.4,124.5c0,0-7.3,1.3-12.7,2.7c8.7,2.9,18.5,1.1,18.5,1.1l-1.3-8.1l1.5-1.2c-2.4-0.7-5-0.8-7.5-0.4
			C219.5,120.8,220.3,124.5,220.4,124.5L220.4,124.5L220.4,124.5z M191,138.7c2.2,3.2,15.2,24.2,15.2,24.2l5.6-5.8l-8.5-0.7l-4-19.9
			C196.5,136.5,193.6,137.2,191,138.7L191,138.7L191,138.7z M179.6,167.5c-2.2,2.5-13.3,15-13.3,15s10.1,0.3,13.6-0.4
			c-0.7-2.9-1-6.5-1.3-8c-0.1-0.3,16.7,3,28.4,1c-11.2-4.1-27-2.7-27-2.7S179.7,169.7,179.6,167.5L179.6,167.5L179.6,167.5z
			 M166.2,157.4l-5.1,0.5c5.7,0.4,18.3,5.5,18.3,5.5l-1.5-10.2l-2.1,2.2l-8.1-2.1L166.2,157.4L166.2,157.4L166.2,157.4z
			 M160.2,123.9l4.7,0.2c0,0-4.7-7.8-8.1-8.5c0,1.4-0.8,19.7-0.8,19.7s-9.8-2.4-11.7-0.6c2.9,2.9,8.8,6.3,8.8,6.3l-0.7,9.7
			C156.4,144.8,160.2,123.9,160.2,123.9L160.2,123.9L160.2,123.9z M112.4,233.6c0.3,1.2,0.5,2.3,0.6,3.5c0.3-0.7,0.9-2,1.6-3.5l0,0
			c2.9-6.4,8.2-18.4,11.5-23.2c4.1-1.3,14.6-1.3,32.7-2.4c-9.7,7-18.2,15.7-24.9,25.7l0,0c-3.1,4.6-4.8,8.1-5.2,9.3
			c5.7-0.2,11.8,2.2,13.4,3c3.4-2.9,7.5-2.8,10.1-4c-3.8-0.7-10.5,0.9-10.5,0.9s0.7-4.5,1.3-9.1c0-0.3,0.1-0.6,0.1-0.8
			c11.9-5.3,16.7-18.4,16.7-18.4l7.8-0.5v-3.7l14.8-6.7l-1.1-7.4l-0.7-5.2l-3.2,0.5l-0.4,4.7l-0.6,6.5c0,0-10.5,0.5-10.4-0.9
			c0.1-0.7-0.5-3.3-1.1-5.7c-0.6-2.4-1.2-4.3-1.2-4.3l-5.1,0.5l-4.4-8.9l-5.1,5.5l-2.5,0.3l-0.8,6.9l-0.3,2l-4.6-0.3l-0.3,5.9
			c0,0-7.3,1.7-12.6,3c0.6-3.2,0.9-6.4,0.7-9.6h-0.4c-9.1,8.5-28.4,4.2-28.4,4.2C100.3,201.7,110,223.1,112.4,233.6L112.4,233.6
			L112.4,233.6z"/>
		<path class="st1" d="M207,123.3c2.2,0,10.4-0.3,10.4-0.3s-1.4-4.7-2.2-7.6c5.4-0.5,14.8,3.3,18.8,4.7c-1.4,0.3-4.3-0.1-5.4,0.1
			c0.6,1.1,1.2,30.1,1.3,30.6c1.2,1.3,6,6.2,7.3,7.7c0.8-2.8,4.9-34.5,5-35.4c3.6,0.9,15.1,1,15.1,1s1.8-2.8,2.4-4.1
			c-12.3,2.9-43.7-15.7-54-19.3c-2.6,1.5-9.9,4.4-13.1,6.5C194.4,109,206.2,122.5,207,123.3L207,123.3L207,123.3z"/>
		<path class="st1" d="M229.1,186.9l2.8-4.3c0,0-17.7,0.8-21.5,0.9c0.7,5.5,1.6,16.6,0.7,20.4c4.3-1,20.8,1.1,22.5,1.3l0,0h0.1l0,0
			l-3.8-5.4l-9.9,0.1l0.5-3.7l4.5-0.8l2.5-4.2l-6.5,0.6l0.3-3.6L229.1,186.9L229.1,186.9L229.1,186.9z"/>
		<path class="st1" d="M260.2,98.7c2.8,1.1,7.9,8.6,5.3,21.6c-3.8,10.9-22.5,36.5-26.4,50.9c0.6,1.1,1.3,2.2,2.1,3.2
			c7.5-8,30.8-3.1,33.3-0.7c3.6-4.5,8.1-6.8,10.2-8.3c-1.2,0-11.2-0.5-14.3-0.6c-1.2,0.5-3.7,2-5.9,3.2c-1.5-0.3-7.5-0.7-7.5-0.7
			c-0.5-0.9-0.9-1.9-1.2-2.9c3.8-15.8,23.8-29.4,26.6-38.2c-2.6-4.9-13.7-24.1-16.7-31.4c-4.3,1.1-15.8,0.7-19.3,0.4
			c0,4-3.9,15.3-3.9,15.3l14-0.8C256.4,109.5,258.7,103.5,260.2,98.7L260.2,98.7L260.2,98.7z"/>
		<path class="st1" d="M238.9,272.1c13.4-1.2,36.8,9.5,41.1,10.7c2-3.8,8.3-11.8,8.3-11.8l-16.7-0.9c0,0-5,3.7-7,4
			c-1.3-1.2-5.1-5.8-10-12l0,0c-6.4-8.1-14.8-18.8-22.4-28.4l0,0c-9.4-11.9-17.5-21.9-19-22.6c-4.3-1.9-20.2-5.2-25.7-6h-0.1
			c-1.2-0.2-1.9-0.2-1.8-0.1c0,0,0,0.1,0.1,0.1l0,0c0.8,1.5,6,17.3,5.9,19.9c2.3,1.7,7.5,6.3,7.5,6.3l-0.8-20.2
			c1.2-0.3,2.5-0.3,3.8-0.1c1.8,1.5,12.4,16.1,12.4,16.1c-2.4,0.8-4.8,1.4-7.3,1.9c-0.1,0.8-0.4,2.5-0.7,4.6
			c-1,6.7-2.8,17.6-3.3,17.6c-0.6,0-3.7-0.3-4.5-0.1c-0.4,0.1-5.9,5.7-10.8,10.8l0,0c-4.1,4.3-7.9,8.2-7.9,8.2l0.6,1.3l-4.8,0.5
			c0,0-7.1-4.6-9.2-5.2c-2.2,0.1-18.5,0.3-18.5,0.3s8.4,6.2,12.7,10.9c11-5.3,30.1-4.9,36-5c1.6-2.1,4.9-6.7,8.2-11l0,0
			c3.2-4.1,6.3-7.9,7.8-8.8l1,2.4c7-1.2,16.1-0.3,16.1-0.3c0.1-0.5,0.3-1,0.5-1.5c0.8,1.1,2.4,4.5,4,8.3l0,0
			C236,265.5,237.6,269.3,238.9,272.1L238.9,272.1L238.9,272.1z M214,249.4l1.8-15.9l0.4-3.7c0.9,1.2,1.7,2.4,2.4,3.7l0,0
			c3.5,5.8,9.2,15.9,9.2,15.9L214,249.4L214,249.4L214,249.4z"/>
		<path class="st1" d="M181.8,176.6c0,0,0,0.1,0.1,0.1l0,0c1.9,5.5,2.1,25.2,2.1,25.2l7.6-1.8l1.2-4.9l3.6-0.7v6.7
			c0,0,5.7-0.1,7.2-0.3c0.2-2.8,2.5-18.6,4.3-21.9c-3.5,0.5-6.9,0.9-10.4,1c0,0-0.3,8.8-0.6,10c-0.9,0.2-3.7,0-3.6,0.1
			c0.4-3.7,0.4-7.4,0.2-11c-0.8-0.1-8.6-1.9-10.9-2.4l0,0L181.8,176.6L181.8,176.6L181.8,176.6z"/>
		<path class="st1" d="M179.8,188.8c-0.2-0.2-0.3-3.1-0.7-4.2c-0.9,0.7-20-1.1-20-1.1l0.6,5.5c1.8,0.1,3.6,0.1,5.3-0.1
			c0.7,1.7,2.3,11,2.3,11s6.1,0.3,6.9,0.3c-0.1-2.1,0-11.2,0-11.2S178.3,189,179.8,188.8L179.8,188.8L179.8,188.8z"/>
		<path class="st1" d="M128,245.8c-1.3,2.5-4,7.3-5.2,9.3c2.8-0.7,12.7-1.5,14.3-1.7c1.2-1.4,2-2.5,2.7-3.5
			c5.7-0.3,17.9,9.9,25.2,9.8c-0.1,0.5-0.3,1.4-0.4,1.8l-0.1,0.2l4.8-0.1l13.3-0.4c0,0,7.3-18,10.3-21.3c-3.5,1.6-11.6,3.1-11.6,3.1
			s-10.6,13-11.9,13.6c-1.3,0.6-11.9-1.1-13.6-2.9c2.2-2.3,9.4-6.3,9.9-6.6c0.5-0.3,2.7,2.1,2.7,2.1l0.3-4.6c0,0-8.5-5.1-10.7-6.2
			c0.1-1.3,0.4-3.1,0.4-3.1c0.4-0.4,1.3-1.1,2.4-2l0,0c2.1-1.8,4.1-3.7,5.9-5.9c-0.1,1.3-0.3,3.6-0.5,5.9c-0.1,1.2-0.2,2.3-0.3,3.2
			c1.7-0.9,4.4-2.2,6.7-3.2l0,0c1-0.4,1.9-0.8,2.6-1.1c1.6-5.4,5.4-21,7.2-24.5l-12.7,5l-0.2,3.6c0,0-3.2,0.7-6.5,1.3
			c-2.6,4.4-9.1,11.2-16.2,15.7l0,0c-0.4,0.2-0.8,0.5-1.1,0.7c0.1,2-0.2,4-0.8,6c2.2,0,9.4,0.3,12,2.3c-2.2,1.1-7.9,2.6-12.2,6.2
			C140.5,247.3,134.4,245.1,128,245.8L128,245.8L128,245.8z"/>
		<path class="st1" d="M295.7,104.5c-0.2-0.9-1.1-13.4-1.2-15c1.9,0.8,3.4,2.2,7.7,8.1c4.7,13.1-13,37-12.6,38.8
			c1.4,2.7,7.4,8,12,13.1c-7-0.4-21.8,7.3-21.8,7.3l-4.6-6c0,0-8.2,2-9.1,2.5c0.8,1.1,3.7,4.9,5.8,7.9c6.7-3.8,18.4,0.6,27.7,8.5
			c10.2,5.4,16.9,7.3,22.6,7.8h2.5h-2.5c1.3,0.1,2.5,0.2,3.7,0.2c0-0.1,0-0.1,0-0.2c0.8-6.3,13.4-26.1,14.8-29
			c-2.6,0.8-15.3,3.3-15.3,3.3s-11.1,15.4-15.9,16.9c-4.8,1.5-12.2-4.1-12.2-4.1s0.2-2.6,0.3-4c3.3-2.4,8.1-4.7,10.3-4.8
			c0.1,1.2,0.3,2.9,0.3,2.9l4-0.1c0,0,0.3-4,0.6-6.4c-3.7-0.9-11.7-8.3-11.6-9.8c2.9-3.3,9.7-11.6,11.1-15.1
			c-1.5,5.9-3.5,17.2-3.5,17.2s8.7-4.2,10.7-5.8c0.7-4.6,7.8-27.8,8.8-30.6c-1.2,0.1-9.7,1-11.1,1.2c0-1-0.2-2.9-0.1-4.9
			c-1.4-1.2-26.5-22.1-26.5-22.1L280,93.3c3,3.6,5.8,20.1,5.8,20.1S295.8,105.4,295.7,104.5L295.7,104.5L295.7,104.5z"/>
		<path class="st1" d="M340.9,303.3c-9,5.6-25.9,12.5-53.4,11.6c-16.2-0.5-49.2-6.9-84.5-15.3l0,0c-50.9-12.1-106.4-25-122-12.9
			c18.7-8.1,52.8,0.6,90.9,12.8l0,0c49.2,15.7,105.3,37.3,143.8,36.3c25.4-0.6,54.1-16,54.1-16S346.7,306.8,340.9,303.3L340.9,303.3
			z"/>
		<path class="st1" d="M207.6,135.2c-0.6,0.3-2.4,0.3-4.4,0.7c0.8,1.7,2,17.3,2.3,18.5c1.5-0.3,9.4,2,10.8,2
			c0.1-2.8,0.2-18.6,0.7-19.5c1.3,0.2,5.8,0.2,5.8,0.2s1.4-2.2,2.5-4.5c-11.5,0.8-28.8-6.7-36-6.4c0.8,2.8,1.7,6.2,2.1,8.4
			C194.7,133.3,208.2,135,207.6,135.2L207.6,135.2L207.6,135.2z"/>
		<path class="st1" d="M353.9,260.6c-0.4,0.5-1,1.1-1.6,1.8c-4.3,5-12.9,15.3-13.8,15.2c-0.7,0-13.7-6.6-25.5-15.4l0,0
			c-6.1-4.6-11.9-9.9-15.4-15.2c-0.2-0.3-13-1.4-16-2.4c3.5-0.9,11.9-1.2,15.1-1.8c0.5-2.4,1-6.6,1.3-9.1l0,0
			c0.1-0.5,0.1-0.9,0.1-1.2c-2.5-1.5-16.9-16.2-26.3-27.2l0,0c-3.9-4.6-6.9-8.5-7.9-10.6c-9.1,0.6-17.6-1.8-23-4.1
			c-0.8,0.4-2.2,0.7-2.5,0.8c0,0,0.5,6.4,1,13.7l0,0c0.5,7.8,1.1,16.5,0.8,19.4c3-2.1,9.8-4.6,11.9-5.9c0.1-3,0.1-8.8-0.1-13.4
			c-0.1-3.1-0.2-5.7-0.4-6.7c0.5-0.3,1-0.8,1.3-0.8c1.1,1.7,3,4.5,5.1,7.6l0,0c4.6,6.7,10.4,14.8,11.4,16.5c-1.9,0-7.5-0.5-10.6-0.8
			c-0.5,0.9-1,1.7-1.6,2.5c0.1,0.6,0.8,4.9,1.7,10.2l0,0c1.3,8.6,2.9,20,2.9,24.2c3.6-0.7,8.2-1.4,10.3-1.9
			c0.5-3.6,0.7-7.2,0.6-10.8c4.5,0,11.9,8.1,19.7,17c6.5,7.4,13.4,15.4,19.2,19.6c21.8-4.8,39.8,4.5,42.5,5.1
			c2.4-3.8,11.7-16.2,17.8-24.4c3.3-4.4,5.8-7.6,5.8-7.6S358.8,260,353.9,260.6L353.9,260.6L353.9,260.6z M273,241.7l-0.2-7.9
			l-0.2-8.4c2.4,2.6,4.7,5.4,6.7,8.4l0,0c1.2,1.7,2.1,3.6,2.7,5.6C282.5,242.2,273,241.7,273,241.7L273,241.7L273,241.7z"/>
		<path class="st1" d="M115.8,264.9c0.3-1.2,0.6-2.3,1-3.5l0,0c3-9.5,8.5-19.4,14.8-28.3l0,0c6.5-9.3,13.8-17.5,20-22.8
			c0.1-0.1-16.2,2.1-22.4,2.8c-2.8,1.8-8.6,12.8-12.2,20l0,0c-1.8,3.6-3,6.3-3,6.3l-2.2,0.4l-0.8-1.1c-0.3-1.9-0.7-3.8-1.3-5.6l0,0
			c-2.5-8.2-7.6-19.7-12.3-28.4l0,0c-2.7-5.2-5.3-9.3-7-11.4c-10-1.5-19.7-8-21.5-9.5c-2.3,4.2-14.8,9.8-14.8,9.8s3.2,7.2,4.8,10.9
			l0,0l0.7,1.6c3.4,1.9,6.5,4.2,9.2,6.9c0-2.9-0.3-5.7-0.6-8.4c-0.7-6.5-1.8-11.8-1.8-12.9c3.8,1,8.2,6.2,12.5,12.9l0,0
			c5.7,9,11.2,20.7,14.5,28.4l0,0c1.2,2.6,2.2,5.2,3.1,7.9c3.7,0.2,10.5,3.7,11.7,4.4c1.2-1.1,2.7-1.9,4.2-2.5
			c-0.8,1.9-5,12.1-6.6,18.6c-0.1,0.3-0.2,0.7-0.2,1s-2.9,0-2.9,0l-1.2-1.1l0,0c-2-1.9-6.1-5.9-7.5-8.7c-4.7,0.4-30.6-0.4-29,0.4
			c4.4,2.2,8.6,4.9,12.4,8.2l0,0c3.2,2.8,6.1,5.8,8.8,9.1C96.6,264.7,115.8,265.1,115.8,264.9L115.8,264.9L115.8,264.9z"/>
		<path class="st1" d="M118.4,166c-1.4,0.3-3.8,0.4-3.8,0.4s-13.2-9.5-15.7-11.9c-5.1,0.1-16.5,3.5-16.5,3.5s9.1,11.4,12.7,16.4
			c26.5-10.5,56.9-1.1,67.4,2.3l0,0c1.2,0.5,2.4,0.8,3.7,1.1c0.2-0.3,0.6-0.6,1-1.1c2.3-2.4,7.2-7,9.3-9.1
			c-14.8-9.4-33.9-10.8-38.6-11.3c2.2-3.1,10-6.2,12-7c0-2.4-0.2-4.7-0.5-7.1c-14.6-9.9-20.3-18.5-24.3-22.9c-2.2,0-10,0.2-10,0.2
			l-0.3-13.9c0,0-15.6-6.7-17.2-7.5c1.1,5.2,5.6,42.7,5.6,42.7l13.2,4.5l-0.7-13.4l10.7,8.8l-6.3,0.4
			C120.1,141.2,118.8,158,118.4,166L118.4,166L118.4,166z M142.8,164.3c0,3.5-12,1.2-12,1.2v-5.8
			C133.2,158.5,142.8,160.8,142.8,164.3L142.8,164.3L142.8,164.3z M134.7,149.1c0,0,0.9,2.3,0.2,2.5s-4.2,4.3-4.2,4.3v-11
			L134.7,149.1L134.7,149.1L134.7,149.1z"/>
		<path class="st1" d="M123.7,189.3c-15.7-4.2-21,3.5-21.2,4.6c-0.9,7.9,18,6.3,22.4,2.8C126.6,194.6,127.9,191.4,123.7,189.3
			L123.7,189.3z M116,195.8c0.2,0.7-4,0.6-4,0.6l0.9-5.4h3.7C116.7,191.1,115.9,195.1,116,195.8L116,195.8L116,195.8z"/>
		<path class="st1" d="M145.6,129.4c0,0,8.3,3,9.1,3.6c0.1-2.3-1.5-21-1.9-22.8c1.1-0.4,4.3-0.2,5.7,1.3c1.9,2.2,9.3,12.4,10.4,14.6
			c-0.7,0-4.8,0.5-4.8,0.5s-6.7,21.4-11.2,28.5c6.6-0.3,10.6,0.8,11.7,0.2c0.6-1.8,1.5-4.6,1.5-4.6l10.4,0.4c0,0,1.9-1.6,2.6-2.3
			c0.5,0.2,3.9,15,4.8,20.4c7.8-0.9,25.4,2.8,31.7,6.6c1.5-4.6,8.4-13.9,9.2-15.1l-13.1,0.2c0,0-7.7,6.6-8,7s-26.6-48.1-33-57.6
			c-9.7,2.1-24.6-6.1-30-11.1c-1.7,2.2-3.5,4.3-5.5,6.2C138.7,107.7,145.6,129.4,145.6,129.4L145.6,129.4L145.6,129.4z M171.4,130.7
			c2.1,3.4,6,11,6.6,14.9c-1.7-0.3-11.3,1.7-10.4,0.2C168.4,143.1,170.7,132.3,171.4,130.7L171.4,130.7z"/>
		<path class="st1" d="M146.9,187c1-1.4,1.9-2.9,2.7-4.4c-6,0.7-23.9-1.4-23.9-1.4c6.7,12.1,4.9,22.2,4.9,22.3
			c0.8-0.2,7.7-0.9,7.7-0.9l0.4-6.7l5.2-0.3l0.2-4.5c0,0-3.9-0.1-5.3-0.1c0-1-0.2-2.6-0.2-3.7C141,187.1,145.7,187,146.9,187
			L146.9,187L146.9,187z"/>
		<path class="st2" d="M198.9,30c1.6,0,3.1,0.3,4.6,0.9c1.4,0.6,2.8,1.5,3.9,2.6c1.1,1,2,2.3,2.6,3.6c0.7,1.8,1,3.7,0.9,5.7v23.8
			c0.1,3.3-1.1,6.5-3.3,9c-0.8,0.9-1.8,1.7-2.9,2.2c-1.9,0.9-4,1.2-6,1.1c-1.6-0.1-3.1-1-4-2.4v12.6h-7.8v-47c0-3.2,1.3-6.3,3.6-8.6
			c1.1-1.1,2.3-1.9,3.7-2.6C195.6,30.4,197.2,30,198.9,30L198.9,30L198.9,30z M194.7,66.7c-0.1,1.2,0.4,2.4,1.2,3.2
			c0.8,0.7,1.9,1.1,3,1.1c1.1,0,2.2-0.4,3-1.1c0.9-0.8,1.3-2,1.2-3.2V42.8c0.1-1.2-0.4-2.3-1.3-3.2c-0.8-0.7-1.8-1.2-2.9-1.2
			c-1.1,0-2.2,0.4-3,1.2c-0.9,0.8-1.3,2-1.2,3.2V66.7L194.7,66.7z"/>
		<polygon class="st2" points="182.6,43 182.6,78.2 174.8,78.2 174.8,43 182.6,43 		"/>
		<path class="st2" d="M167.1,33.9c2.3,2.2,3.7,5.2,3.6,8.4v36h-7.8V42.9c0-1.2-0.4-2.3-1.2-3.1c-0.8-0.8-1.9-1.3-3-1.3
			c-1.1,0-2.2,0.4-3,1.2c-0.8,0.8-1.3,2-1.3,3.2v35.4h-7.8V42.5c0.1-6.6,5.4-12,12.1-12.2C161.9,30.3,164.9,31.6,167.1,33.9
			L167.1,33.9L167.1,33.9z"/>
		<path class="st3" d="M286.8,44.1c0,1.9-1.5,3.4-3.4,3.4h-10.8c-1.9,0-3.4-1.5-3.4-3.4V33.3c0-1.9,1.5-3.4,3.4-3.4h10.8
			c1.9,0,3.4,1.5,3.4,3.4L286.8,44.1L286.8,44.1L286.8,44.1z"/>
		<path class="st3" d="M181.2,30.2c0.9,0,1.6,0.7,1.6,1.6v4.5c0,0.9-0.7,1.6-1.6,1.6h-4.9c-0.9,0-1.6-0.7-1.6-1.6v-4.5
			c0-0.9,0.7-1.6,1.6-1.6H181.2z"/>
		<path class="st2" d="M262.7,50.7c-2.3-2.2-5.4-3.4-8.6-3.5c-1.2-0.1-2.3-0.6-3.1-1.4c-0.7-0.8-1.2-1.9-1.1-3
			c0-1.1,0.4-2.2,1.1-3.1c0.8-0.9,1.9-1.4,3.1-1.3c2.4,0,3.7,1.1,4.2,3.3h7.8c0.1-3.2-1.3-6.2-3.7-8.2c-2.3-2.1-5.3-3.3-8.4-3.2
			c-3.2,0-6.3,1.3-8.5,3.6c-4.6,5-4.6,12.7-0.1,17.7c2.2,2.4,5.3,3.7,8.5,3.7c1.1-0.1,2.3,0.3,3.2,1c0.8,0.8,1.2,1.9,1.1,3v7
			c0,1.1-0.3,2.2-1,3.2c-0.8,1-2,1.4-3.3,1.3c-1.8,0.1-3.4-1-3.9-2.7c-0.1-0.3-0.2-0.7-0.2-1V60h-7.8v6.5c0,0.4,0,0.9,0.1,1.3l0,0
			v0.1c0.4,2.8,1.8,5.4,3.9,7.4c2.1,2.1,5,3.4,8,3.3c6.4,0.3,11.8-4.6,12.1-10.9c0-0.3,0-0.7,0-1v-7.6
			C266.3,55.9,265,52.9,262.7,50.7L262.7,50.7L262.7,50.7z"/>
		<path class="st2" d="M139.5,50.7c-2.3-2.2-5.4-3.4-8.6-3.5c-1.2-0.1-2.3-0.6-3.1-1.4c-0.7-0.8-1.2-1.9-1.1-3
			c0-1.1,0.4-2.2,1.1-3.1c0.8-0.9,1.9-1.4,3.1-1.3c2.4,0,3.8,1.1,4.2,3.3h7.8c0.1-3.2-1.3-6.2-3.7-8.2c-2.3-2.1-5.3-3.3-8.4-3.2
			c-3.2,0-6.3,1.3-8.5,3.6c-4.6,5-4.6,12.7-0.1,17.7c2.2,2.4,5.3,3.7,8.5,3.7c1.1-0.1,2.3,0.3,3.2,1c0.8,0.8,1.2,1.9,1.1,3v7
			c0,1.1-0.3,2.2-1,3.2c-0.8,1-2,1.4-3.3,1.3c-1.8,0.1-3.4-1-3.9-2.7c-0.1-0.3-0.2-0.7-0.2-1V60h-7.8v6.5c0,0.4,0,0.9,0.1,1.3l0,0
			v0.1c0.4,2.8,1.8,5.4,3.9,7.4c2.1,2.1,5,3.4,8,3.3c6.4,0.3,11.8-4.6,12.1-10.9c0-0.3,0-0.7,0-1v-7.6
			C143.1,55.9,141.8,52.9,139.5,50.7L139.5,50.7L139.5,50.7z"/>
		<path class="st2" d="M238.8,54.5V42.1c0-3.2-1.3-6.2-3.7-8.4c-2.2-2.3-5.3-3.5-8.5-3.5c-3.2-0.1-6.4,1.1-8.6,3.4
			c-2.2,2.3-3.5,5.5-3.3,8.7v24.3c-0.1,3.2,1.1,6.4,3.4,8.7c2.3,2.3,5.4,3.5,8.6,3.4c6.5,0.2,11.9-5,12.1-11.4c0,0,0,0,0,0l0,0v-7.1
			h-7.9V67c0,0,0,0.2,0,0.4c-0.3,2-2.2,3.4-4.2,3.2c-1.1,0-2.2-0.4-3-1.2c-0.8-0.8-1.3-2-1.2-3.2V54.5H238.8L238.8,54.5z
			 M222.4,42.7c0-1.2,0.4-2.3,1.2-3.2c0.8-0.8,1.9-1.3,3.1-1.2c2.4,0,4.3,2,4.3,4.3c0,0,0,0,0,0.1v4.5h-8.6V42.7L222.4,42.7z"/>
	</g>
</g>
</svg>
